<?xml version="1.0" encoding="utf-8"?>
<svg version="1.1" xmlns:xlink="http://www.w3.org/1999/xlink" width="40px" height="21px" xmlns="http://www.w3.org/2000/svg">
  <g transform="matrix(1 0 0 1 -1234 -224 )">
    <path d="M 1235 229  A 4 4 0 0 1 1239 225 L 1269 225  A 4 4 0 0 1 1273 229 L 1273 240  A 4 4 0 0 1 1269 244 L 1239 244  A 4 4 0 0 1 1235 240 L 1235 229  Z " fill-rule="nonzero" fill="#169bd5" stroke="none" />
    <path d="M 1234.5 229  A 4.5 4.5 0 0 1 1239 224.5 L 1269 224.5  A 4.5 4.5 0 0 1 1273.5 229 L 1273.5 240  A 4.5 4.5 0 0 1 1269 244.5 L 1239 244.5  A 4.5 4.5 0 0 1 1234.5 240 L 1234.5 229  Z " stroke-width="1" stroke="#8aecfa" fill="none" stroke-opacity="0.768627450980392" />
  </g>
</svg>