<?xml version="1.0" encoding="utf-8"?>
<svg version="1.1" xmlns:xlink="http://www.w3.org/1999/xlink" width="28px" height="23px" xmlns="http://www.w3.org/2000/svg">
  <g transform="matrix(1 0 0 1 -1220 -95 )">
    <path d="M 5.25 11.5  L 8.75 11.5  L 8.75 19.1666666666667  L 5.25 19.1666666666667  L 5.25 11.5  Z M 11 3.83333333333333  L 14 3.83333333333333  L 14 19.1666666666667  L 11 19.1666666666667  L 11 3.83333333333333  Z M 2 21  L 28 21  L 28 23  L 0 23  L 0 0  L 2 0  L 2 21  Z M 15.75 7.66666666666667  L 19 7.66666666666667  L 19 19.1666666666667  L 15.75 19.1666666666667  L 15.75 7.66666666666667  Z M 21 1.91666666666667  L 24 1.91666666666667  L 24 19.1666666666667  L 21 19.1666666666667  L 21 1.91666666666667  Z " fill-rule="nonzero" fill="#b5b2b2" stroke="none" transform="matrix(1 0 0 1 1220 95 )" />
  </g>
</svg>