<?xml version="1.0" encoding="utf-8"?>
<svg version="1.1" xmlns:xlink="http://www.w3.org/1999/xlink" width="28px" height="23px" xmlns="http://www.w3.org/2000/svg">
  <g transform="matrix(1 0 0 1 -1254 -95 )">
    <path d="M 3.8515625 18.9733664772727  C 3.95052083333333 19.0768229166667  4 19.1993371212121  4 19.3409090909091  L 4 22.4772727272727  C 4 22.6188446969697  3.95052083333333 22.7413589015152  3.8515625 22.8448153409091  C 3.75260416666667 22.948271780303  3.63541666666667 23  3.5 23  L 0.5 23  C 0.364583333333333 23  0.247395833333333 22.948271780303  0.1484375 22.8448153409091  C 0.0494791666666667 22.7413589015152  0 22.6188446969697  0 22.4772727272727  L 0 19.3409090909091  C 0 19.1993371212121  0.0494791666666667 19.0768229166667  0.1484375 18.9733664772727  C 0.247395833333333 18.8699100378788  0.364583333333333 18.8181818181818  0.5 18.8181818181818  L 3.5 18.8181818181818  C 3.63541666666667 18.8181818181818  3.75260416666667 18.8699100378788  3.8515625 18.9733664772727  Z M 3.8515625 12.7006392045455  C 3.95052083333333 12.8040956439394  4 12.9266098484848  4 13.0681818181818  L 4 16.2045454545455  C 4 16.3461174242424  3.95052083333333 16.4686316287879  3.8515625 16.5720880681818  C 3.75260416666667 16.6755445075758  3.63541666666667 16.7272727272727  3.5 16.7272727272727  L 0.5 16.7272727272727  C 0.364583333333333 16.7272727272727  0.247395833333333 16.6755445075758  0.1484375 16.5720880681818  C 0.0494791666666667 16.4686316287879  0 16.3461174242424  0 16.2045454545455  L 0 13.0681818181818  C 0 12.9266098484848  0.0494791666666667 12.8040956439394  0.1484375 12.7006392045455  C 0.247395833333333 12.5971827651515  0.364583333333333 12.5454545454545  0.5 12.5454545454545  L 3.5 12.5454545454545  C 3.63541666666667 12.5454545454545  3.75260416666667 12.5971827651515  3.8515625 12.7006392045455  Z M 3.8515625 6.42791193181818  C 3.95052083333333 6.53136837121212  4 6.65388257575757  4 6.79545454545455  L 4 9.93181818181818  C 4 10.0733901515152  3.95052083333333 10.1959043560606  3.8515625 10.2993607954545  C 3.75260416666667 10.4028172348485  3.63541666666667 10.4545454545455  3.5 10.4545454545455  L 0.5 10.4545454545455  C 0.364583333333333 10.4545454545455  0.247395833333333 10.4028172348485  0.1484375 10.2993607954545  C 0.0494791666666667 10.1959043560606  0 10.0733901515152  0 9.93181818181818  L 0 6.79545454545455  C 0 6.65388257575757  0.0494791666666667 6.53136837121212  0.1484375 6.42791193181818  C 0.247395833333333 6.32445549242424  0.364583333333333 6.27272727272727  0.5 6.27272727272727  L 3.5 6.27272727272727  C 3.63541666666667 6.27272727272727  3.75260416666667 6.32445549242424  3.8515625 6.42791193181818  Z M 27.8515625 18.9733664772727  C 27.9505208333333 19.0768229166667  28 19.1993371212121  28 19.3409090909091  L 28 22.4772727272727  C 28 22.6188446969697  27.9505208333333 22.7413589015152  27.8515625 22.8448153409091  C 27.7526041666667 22.948271780303  27.6354166666667 23  27.5 23  L 6.5 23  C 6.36458333333333 23  6.24739583333333 22.948271780303  6.1484375 22.8448153409091  C 6.04947916666667 22.7413589015152  6 22.6188446969697  6 22.4772727272727  L 6 19.3409090909091  C 6 19.1993371212121  6.04947916666667 19.0768229166667  6.1484375 18.9733664772727  C 6.24739583333333 18.8699100378788  6.36458333333333 18.8181818181818  6.5 18.8181818181818  L 27.5 18.8181818181818  C 27.6354166666667 18.8181818181818  27.7526041666667 18.8699100378788  27.8515625 18.9733664772727  Z M 3.8515625 0.155184659090908  C 3.95052083333333 0.258641098484848  4 0.381155303030301  4 0.522727272727272  L 4 3.65909090909091  C 4 3.80066287878788  3.95052083333333 3.92317708333333  3.8515625 4.02663352272727  C 3.75260416666667 4.13008996212121  3.63541666666667 4.18181818181818  3.5 4.18181818181818  L 0.5 4.18181818181818  C 0.364583333333333 4.18181818181818  0.247395833333333 4.13008996212121  0.1484375 4.02663352272727  C 0.0494791666666667 3.92317708333333  0 3.80066287878788  0 3.65909090909091  L 0 0.522727272727272  C 0 0.381155303030301  0.0494791666666667 0.258641098484848  0.1484375 0.155184659090908  C 0.247395833333333 0.0517282196969661  0.364583333333333 0  0.5 0  L 3.5 0  C 3.63541666666667 0  3.75260416666667 0.0517282196969661  3.8515625 0.155184659090908  Z M 27.8515625 12.7006392045455  C 27.9505208333333 12.8040956439394  28 12.9266098484848  28 13.0681818181818  L 28 16.2045454545455  C 28 16.3461174242424  27.9505208333333 16.4686316287879  27.8515625 16.5720880681818  C 27.7526041666667 16.6755445075758  27.6354166666667 16.7272727272727  27.5 16.7272727272727  L 6.5 16.7272727272727  C 6.36458333333333 16.7272727272727  6.24739583333333 16.6755445075758  6.1484375 16.5720880681818  C 6.04947916666667 16.4686316287879  6 16.3461174242424  6 16.2045454545455  L 6 13.0681818181818  C 6 12.9266098484848  6.04947916666667 12.8040956439394  6.1484375 12.7006392045455  C 6.24739583333333 12.5971827651515  6.36458333333333 12.5454545454545  6.5 12.5454545454545  L 27.5 12.5454545454545  C 27.6354166666667 12.5454545454545  27.7526041666667 12.5971827651515  27.8515625 12.7006392045455  Z M 27.8515625 6.42791193181818  C 27.9505208333333 6.53136837121212  28 6.65388257575757  28 6.79545454545455  L 28 9.93181818181818  C 28 10.0733901515152  27.9505208333333 10.1959043560606  27.8515625 10.2993607954545  C 27.7526041666667 10.4028172348485  27.6354166666667 10.4545454545455  27.5 10.4545454545455  L 6.5 10.4545454545455  C 6.36458333333333 10.4545454545455  6.24739583333333 10.4028172348485  6.1484375 10.2993607954545  C 6.04947916666667 10.1959043560606  6 10.0733901515152  6 9.93181818181818  L 6 6.79545454545455  C 6 6.65388257575757  6.04947916666667 6.53136837121212  6.1484375 6.42791193181818  C 6.24739583333333 6.32445549242424  6.36458333333333 6.27272727272727  6.5 6.27272727272727  L 27.5 6.27272727272727  C 27.6354166666667 6.27272727272727  27.7526041666667 6.32445549242424  27.8515625 6.42791193181818  Z M 27.8515625 0.155184659090908  C 27.9505208333333 0.258641098484848  28 0.381155303030301  28 0.522727272727272  L 28 3.65909090909091  C 28 3.80066287878788  27.9505208333333 3.92317708333333  27.8515625 4.02663352272727  C 27.7526041666667 4.13008996212121  27.6354166666667 4.18181818181818  27.5 4.18181818181818  L 6.5 4.18181818181818  C 6.36458333333333 4.18181818181818  6.24739583333333 4.13008996212121  6.1484375 4.02663352272727  C 6.04947916666667 3.92317708333333  6 3.80066287878788  6 3.65909090909091  L 6 0.522727272727272  C 6 0.381155303030301  6.04947916666667 0.258641098484848  6.1484375 0.155184659090908  C 6.24739583333333 0.0517282196969661  6.36458333333333 0  6.5 0  L 27.5 0  C 27.6354166666667 0  27.7526041666667 0.0517282196969661  27.8515625 0.155184659090908  Z " fill-rule="nonzero" fill="#000000" stroke="none" transform="matrix(1 0 0 1 1254 95 )" />
  </g>
</svg>