<?xml version="1.0" encoding="utf-8"?>
<svg version="1.1" xmlns:xlink="http://www.w3.org/1999/xlink" width="12px" height="9px" xmlns="http://www.w3.org/2000/svg">
  <g transform="matrix(1 0 0 1 0 -49 )">
    <path d="M 6 49  C 9.36 49  12 50.98  12 53.5  C 12 56.02  9.36 58  6 58  C 2.64 58  0 56.02  0 53.5  C 0 50.98  2.64 49  6 49  Z " fill-rule="nonzero" fill="#ffffff" stroke="none" />
    <path d="M 6 49.5  C 9.08 49.5  11.5 51.26  11.5 53.5  C 11.5 55.74  9.08 57.5  6 57.5  C 2.92 57.5  0.5 55.74  0.5 53.5  C 0.5 51.26  2.92 49.5  6 49.5  Z " stroke-width="1" stroke="#797979" fill="none" />
  </g>
</svg>