<?xml version="1.0" encoding="utf-8"?>
<svg version="1.1" xmlns:xlink="http://www.w3.org/1999/xlink" width="13px" height="9px" xmlns="http://www.w3.org/2000/svg">
  <g transform="matrix(1 0 0 1 -12 -49 )">
    <path d="M 18.5 49  C 22.14 49  25 50.98  25 53.5  C 25 56.02  22.14 58  18.5 58  C 14.86 58  12 56.02  12 53.5  C 12 50.98  14.86 49  18.5 49  Z " fill-rule="nonzero" fill="#ffffff" stroke="none" />
    <path d="M 18.5 49.5  C 21.86 49.5  24.5 51.26  24.5 53.5  C 24.5 55.74  21.86 57.5  18.5 57.5  C 15.14 57.5  12.5 55.74  12.5 53.5  C 12.5 51.26  15.14 49.5  18.5 49.5  Z " stroke-width="1" stroke="#797979" fill="none" />
  </g>
</svg>