<?xml version="1.0" encoding="utf-8"?>
<svg version="1.1" xmlns:xlink="http://www.w3.org/1999/xlink" width="5px" height="5px" xmlns="http://www.w3.org/2000/svg">
  <g transform="matrix(1 0 0 1 -19 -35 )">
    <path d="M 21.5 35  C 22.9 35  24 36.1  24 37.5  C 24 38.9  22.9 40  21.5 40  C 20.1 40  19 38.9  19 37.5  C 19 36.1  20.1 35  21.5 35  Z " fill-rule="nonzero" fill="#ffffff" stroke="none" />
    <path d="M 21.5 35.5  C 22.62 35.5  23.5 36.38  23.5 37.5  C 23.5 38.62  22.62 39.5  21.5 39.5  C 20.38 39.5  19.5 38.62  19.5 37.5  C 19.5 36.38  20.38 35.5  21.5 35.5  Z " stroke-width="1" stroke="#797979" fill="none" />
  </g>
</svg>