<?xml version="1.0" encoding="utf-8"?>
<svg version="1.1" xmlns:xlink="http://www.w3.org/1999/xlink" width="28px" height="23px" xmlns="http://www.w3.org/2000/svg">
  <g transform="matrix(1 0 0 1 -23 -2 )">
    <path d="M 11.9729166666667 13.8574673480977  C 12.7020833333333 13.2044293015332  13.0666666666667 12.4164300586788  13.0666666666667 11.4934696195344  C 13.0666666666667 10.5705091803899  12.7020833333333 9.78250993753549  11.9729166666667 9.12947189097104  C 11.24375 8.47643384440659  10.3638888888889 8.14991482112436  9.33333333333333 8.14991482112436  C 8.30277777777778 8.14991482112436  7.42291666666667 8.47643384440659  6.69375 9.12947189097104  C 5.96458333333333 9.78250993753549  5.6 10.5705091803899  5.6 11.4934696195344  C 5.6 12.4164300586788  5.96458333333333 13.2044293015332  6.69375 13.8574673480977  C 7.42291666666667 14.5105053946621  8.30277777777778 14.8370244179444  9.33333333333333 14.8370244179444  C 10.3638888888889 14.8370244179444  11.24375 14.5105053946621  11.9729166666667 13.8574673480977  Z M 23.7197916666667 19.362578080636  C 24.084375 19.0360590573538  24.2666666666667 18.6420594359266  24.2666666666667 18.1805792163543  C 24.2666666666667 17.7278061707363  24.0819444444444 17.3359833427977  23.7125 17.0051107325383  C 23.3430555555556 16.674238122279  22.9055555555556 16.5088018171493  22.4 16.5088018171493  C 21.8944444444444 16.5088018171493  21.4569444444444 16.674238122279  21.0875 17.0051107325383  C 20.7180555555556 17.3359833427977  20.5333333333333 17.7278061707363  20.5333333333333 18.1805792163543  C 20.5333333333333 18.6420594359266  20.715625 19.0360590573538  21.0802083333333 19.362578080636  C 21.4447916666667 19.6890971039182  21.8847222222222 19.8523566155593  22.4 19.8523566155593  C 22.9152777777778 19.8523566155593  23.3552083333333 19.6890971039182  23.7197916666667 19.362578080636  Z M 23.7197916666667 5.98835888699603  C 24.084375 5.6618398637138  24.2666666666667 5.26784024228658  24.2666666666667 4.80636002271437  C 24.2666666666667 4.35358697709635  24.0819444444444 3.96176414915767  23.7125 3.63089153889835  C 23.3430555555556 3.30001892863903  22.9055555555556 3.13458262350937  22.4 3.13458262350937  C 21.8944444444444 3.13458262350937  21.4569444444444 3.30001892863903  21.0875 3.63089153889835  C 20.7180555555556 3.96176414915767  20.5333333333333 4.35358697709635  20.5333333333333 4.80636002271437  C 20.5333333333333 5.26784024228658  20.715625 5.6618398637138  21.0802083333333 5.98835888699603  C 21.4447916666667 6.31487791027825  21.8847222222222 6.47813742191936  22.4 6.47813742191936  C 22.9152777777778 6.47813742191936  23.3552083333333 6.31487791027825  23.7197916666667 5.98835888699603  Z M 18.5645833333333 10.0502555366269  C 18.6326388888889 10.1242665152376  18.6666666666667 10.2091614612909  18.6666666666667 10.3049403747871  L 18.6666666666667 12.7211811470755  C 18.6666666666667 12.8082528866175  18.6326388888889 12.8931478326708  18.5645833333333 12.9758659852357  C 18.4965277777778 13.0585841378005  18.41875 13.10429680106  18.33125 13.1130039750142  L 16.0708333333333 13.4264622373651  C 15.9638888888889 13.7312133257619  15.8083333333333 14.0620859360212  15.6041666666667 14.4190800681431  C 15.9347222222222 14.8370244179444  16.3722222222222 15.3376869203104  16.9166666666667 15.9210675752413  C 16.9847222222222 16.0168464887375  17.01875 16.1039182282794  17.01875 16.1822827938671  C 17.01875 16.2867688813174  16.9847222222222 16.3694870338823  16.9166666666667 16.4304372515616  C 16.6930555555556 16.6916524701874  16.2920138888889 17.0812985046375  15.7135416666667 17.599375354912  C 15.1350694444444 18.1174522051864  14.7534722222222 18.3764906303237  14.56875 18.3764906303237  C 14.4618055555556 18.3764906303237  14.3597222222222 18.346015521484  14.2625 18.2850653038047  L 12.5854166666667 17.1095968199886  C 12.2256944444444 17.2750331251183  11.8513888888889 17.4099943214083  11.4625 17.5144804088586  C 11.3555555555556 18.4548551959114  11.24375 19.1296611773613  11.1270833333333 19.5388983532084  C 11.0590277777778 19.747870528109  10.9131944444444 19.8523566155593  10.6895833333333 19.8523566155593  L 7.97708333333333 19.8523566155593  C 7.87013888888889 19.8523566155593  7.77291666666667 19.8197047132311  7.68541666666667 19.7544009085747  C 7.59791666666667 19.6890971039182  7.54930555555556 19.612909331819  7.53958333333333 19.5258375922771  L 7.20416666666667 17.5275411697899  C 6.87361111111111 17.440469430248  6.50902777777778 17.305508233958  6.11041666666667 17.1226575809199  L 4.38958333333333 18.2850653038047  C 4.32152777777778 18.346015521484  4.22430555555556 18.3764906303237  4.09791666666667 18.3764906303237  C 3.99097222222222 18.3764906303237  3.88888888888889 18.3416619345069  3.79166666666667 18.2720045428734  C 2.39166666666667 17.1139504069657  1.69166666666667 16.4173764906303  1.69166666666667 16.1822827938671  C 1.69166666666667 16.1039182282794  1.72569444444444 16.0212000757146  1.79375 15.9341283361726  C 1.89097222222222 15.8122279008139  2.09027777777778 15.5814877910278  2.39166666666667 15.2419080068143  C 2.69305555555556 14.9023282226008  2.92152777777778 14.6367594169979  3.07708333333333 14.4452015900057  C 2.85347222222222 14.0620859360212  2.68333333333333 13.7050918038993  2.56666666666667 13.37421919364  L 0.35 13.060760931289  C 0.252777777777778 13.0520537573348  0.170138888888889 13.0106946810524  0.102083333333333 12.9366837024418  C 0.0340277777777778 12.8626727238312  0 12.7777777777778  0 12.6819988642817  L 0 10.2657580919932  C 0 10.1786863524513  0.0340277777777778 10.0937914063979  0.102083333333333 10.011073253833  C 0.170138888888889 9.92835510126822  0.247916666666667 9.88264243800871  0.335416666666667 9.87393526405451  L 2.59583333333333 9.56047700170358  C 2.70277777777778 9.25572591330683  2.85833333333333 8.92485330304751  3.0625 8.56785917092561  C 2.73194444444444 8.14991482112436  2.29444444444444 7.64925231875828  1.75 7.06587166382737  C 1.68194444444444 6.97009275033125  1.64791666666667 6.88302101078932  1.64791666666667 6.80465644520159  C 1.64791666666667 6.70017035775128  1.68194444444444 6.61309861820935  1.75 6.54344122657581  C 1.96388888888889 6.28222600795003  2.3625 5.89475676698845  2.94583333333333 5.38103350369108  C 3.52916666666667 4.86731024039371  3.91319444444445 4.61044860874503  4.09791666666667 4.61044860874503  C 4.20486111111111 4.61044860874503  4.30694444444444 4.64092371758471  4.40416666666667 4.70187393526406  L 6.08125 5.87734241908007  C 6.41180555555556 5.7206132879046  6.78611111111111 5.58129850463752  7.20416666666667 5.45939806927882  C 7.31111111111111 4.51902328222601  7.42291666666667 3.84857088775317  7.53958333333333 3.44804088586031  C 7.60763888888889 3.23906871095968  7.75347222222222 3.13458262350937  7.97708333333333 3.13458262350937  L 10.6895833333333 3.13458262350937  C 10.7965277777778 3.13458262350937  10.89375 3.16723452583759  10.98125 3.23253833049404  C 11.06875 3.29784213515048  11.1173611111111 3.37402990724967  11.1270833333333 3.4611016467916  L 11.4625 5.45939806927882  C 11.7930555555556 5.54646980882074  12.1576388888889 5.68143100511073  12.55625 5.86428165814878  L 14.2770833333333 4.70187393526406  C 14.3548611111111 4.64092371758471  14.4520833333333 4.61044860874503  14.56875 4.61044860874503  C 14.6756944444444 4.61044860874503  14.7777777777778 4.6452773045618  14.875 4.71493469619534  C 16.275 5.87298883210297  16.975 6.56956274843839  16.975 6.80465644520159  C 16.975 6.87431383683513  16.9409722222222 6.95703198939996  16.8729166666667 7.05281090289608  C 16.75625 7.19212568616316  16.5520833333333 7.42721938292637  16.2604166666667 7.75809199318569  C 15.96875 8.08896460344501  15.75 8.35017982207079  15.6041666666667 8.54173764906303  C 15.8277777777778 8.95968199886428  15.9930555555556 9.31667613098618  16.1 9.61272004542873  L 18.3166666666667 9.91311754684838  C 18.4138888888889 9.93053189475676  18.4965277777778 9.97624455801628  18.5645833333333 10.0502555366269  Z M 25.8270833333333 16.8614423622942  C 27.2756944444444 16.992049971607  28 17.127011167897  28 17.2663259511641  L 28 19.0948324815446  C 28 19.2341472648117  27.2756944444444 19.3691084611016  25.8270833333333 19.4997160704145  C 25.7104166666667 19.7348097671777  25.5645833333333 19.9611962899867  25.3895833333333 20.1788756388416  C 25.8854166666667 21.1627862956653  26.1333333333333 21.7635812985046  26.1333333333333 21.9812606473595  C 26.1333333333333 22.0160893431762  26.1138888888889 22.0465644520159  26.075 22.0726859738785  C 24.8888888888889 22.6908953246262  24.2861111111111 23  24.2666666666667 23  C 24.1888888888889 23  23.9652777777778 22.7953814120765  23.5958333333333 22.3861442362294  C 23.2263888888889 21.9769070603824  22.9736111111111 21.6808631459398  22.8375 21.4980124929018  C 22.6430555555556 21.5154268408101  22.4972222222222 21.5241340147643  22.4 21.5241340147643  C 22.3027777777778 21.5241340147643  22.1569444444444 21.5154268408101  21.9625 21.4980124929018  C 21.8263888888889 21.6808631459398  21.5736111111111 21.9769070603824  21.2041666666667 22.3861442362294  C 20.8347222222222 22.7953814120765  20.6111111111111 23  20.5333333333333 23  C 20.5138888888889 23  19.9111111111111 22.6908953246262  18.725 22.0726859738785  C 18.6861111111111 22.0465644520159  18.6666666666667 22.0160893431762  18.6666666666667 21.9812606473595  C 18.6666666666667 21.7635812985046  18.9145833333333 21.1627862956653  19.4104166666667 20.1788756388416  C 19.2354166666667 19.9611962899867  19.0895833333333 19.7348097671777  18.9729166666667 19.4997160704145  C 17.5243055555556 19.3691084611016  16.8 19.2341472648117  16.8 19.0948324815446  L 16.8 17.2663259511641  C 16.8 17.127011167897  17.5243055555556 16.992049971607  18.9729166666667 16.8614423622942  C 19.0993055555556 16.6089343176226  19.2451388888889 16.3825477948136  19.4104166666667 16.1822827938671  C 18.9145833333333 15.1983721370433  18.6666666666667 14.597577134204  18.6666666666667 14.3798977853492  C 18.6666666666667 14.3450690895325  18.6861111111111 14.3145939806928  18.725 14.2884724588302  C 18.7638888888889 14.2710581109218  18.9340277777778 14.1839863713799  19.2354166666667 14.0272572402044  C 19.5368055555556 13.870528109029  19.8236111111111 13.7225061518077  20.0958333333333 13.5831913685406  C 20.3680555555556 13.4438765852735  20.5138888888889 13.37421919364  20.5333333333333 13.37421919364  C 20.6111111111111 13.37421919364  20.8347222222222 13.576660988075  21.2041666666667 13.9815445769449  C 21.5736111111111 14.3864281658149  21.8263888888889 14.6802952867689  21.9625 14.8631459398069  C 22.1569444444444 14.8457315918985  22.3027777777778 14.8370244179444  22.4 14.8370244179444  C 22.4972222222222 14.8370244179444  22.6430555555556 14.8457315918985  22.8375 14.8631459398069  C 23.3333333333333 14.2449365890592  23.7805555555556 13.7573348476245  24.1791666666667 13.4003407155026  L 24.2666666666667 13.37421919364  C 24.3055555555556 13.37421919364  24.9083333333333 13.6789702820367  26.075 14.2884724588302  C 26.1138888888889 14.3145939806928  26.1333333333333 14.3450690895325  26.1333333333333 14.3798977853492  C 26.1333333333333 14.597577134204  25.8854166666667 15.1983721370433  25.3895833333333 16.1822827938671  C 25.5548611111111 16.3825477948136  25.7006944444444 16.6089343176226  25.8270833333333 16.8614423622942  Z M 25.8270833333333 3.48722316865417  C 27.2756944444444 3.61783077796706  28 3.75279197425705  28 3.89210675752413  L 28 5.7206132879046  C 28 5.85992807117168  27.2756944444444 5.99488926746167  25.8270833333333 6.12549687677456  C 25.7104166666667 6.36059057353776  25.5645833333333 6.58697709634677  25.3895833333333 6.80465644520159  C 25.8854166666667 7.78856710202536  26.1333333333333 8.38936210486466  26.1333333333333 8.60704145371948  C 26.1333333333333 8.64187014953625  26.1138888888889 8.67234525837592  26.075 8.6984667802385  C 24.8888888888889 9.31667613098618  24.2861111111111 9.62578080636002  24.2666666666667 9.62578080636002  C 24.1888888888889 9.62578080636002  23.9652777777778 9.42116221843649  23.5958333333333 9.01192504258944  C 23.2263888888889 8.60268786674238  22.9736111111111 8.30664395229983  22.8375 8.12379329926178  C 22.6430555555556 8.14120764717017  22.4972222222222 8.14991482112436  22.4 8.14991482112436  C 22.3027777777778 8.14991482112436  22.1569444444444 8.14120764717017  21.9625 8.12379329926178  C 21.8263888888889 8.30664395229983  21.5736111111111 8.60268786674238  21.2041666666667 9.01192504258944  C 20.8347222222222 9.42116221843649  20.6111111111111 9.62578080636002  20.5333333333333 9.62578080636002  C 20.5138888888889 9.62578080636002  19.9111111111111 9.31667613098618  18.725 8.6984667802385  C 18.6861111111111 8.67234525837592  18.6666666666667 8.64187014953625  18.6666666666667 8.60704145371948  C 18.6666666666667 8.38936210486466  18.9145833333333 7.78856710202536  19.4104166666667 6.80465644520159  C 19.2354166666667 6.58697709634677  19.0895833333333 6.36059057353776  18.9729166666667 6.12549687677456  C 17.5243055555556 5.99488926746167  16.8 5.85992807117168  16.8 5.7206132879046  L 16.8 3.89210675752413  C 16.8 3.75279197425705  17.5243055555556 3.61783077796706  18.9729166666667 3.48722316865417  C 19.0993055555556 3.23471512398258  19.2451388888889 3.00832860117357  19.4104166666667 2.80806360022714  C 18.9145833333333 1.82415294340337  18.6666666666667 1.22335794056407  18.6666666666667 1.00567859170926  C 18.6666666666667 0.970849895892484  18.6861111111111 0.940374787052812  18.725 0.914253265190234  C 18.7638888888889 0.896838917281845  18.9340277777778 0.809767177739921  19.2354166666667 0.653038046564453  C 19.5368055555556 0.496308915388984  19.8236111111111 0.348286958167705  20.0958333333333 0.208972174900625  C 20.3680555555556 0.0696573916335399  20.5138888888889 0  20.5333333333333 0  C 20.6111111111111 0  20.8347222222222 0.202441794434979  21.2041666666667 0.60732538330494  C 21.5736111111111 1.0122089721749  21.8263888888889 1.30607609312891  21.9625 1.48892674616695  C 22.1569444444444 1.47151239825856  22.3027777777778 1.46280522430437  22.4 1.46280522430437  C 22.4972222222222 1.46280522430437  22.6430555555556 1.47151239825856  22.8375 1.48892674616695  C 23.3333333333333 0.870717395419267  23.7805555555556 0.383115653984477  24.1791666666667 0.0261215218625781  L 24.2666666666667 0  C 24.3055555555556 0  24.9083333333333 0.304751088396743  26.075 0.914253265190234  C 26.1138888888889 0.940374787052812  26.1333333333333 0.970849895892484  26.1333333333333 1.00567859170926  C 26.1333333333333 1.22335794056407  25.8854166666667 1.82415294340337  25.3895833333333 2.80806360022714  C 25.5548611111111 3.00832860117357  25.7006944444444 3.23471512398258  25.8270833333333 3.48722316865417  Z " fill-rule="nonzero" fill="#000000" stroke="none" transform="matrix(1 0 0 1 23 2 )" />
  </g>
</svg>