<?xml version="1.0" encoding="utf-8"?>
<svg version="1.1" xmlns:xlink="http://www.w3.org/1999/xlink" width="46px" height="46px" xmlns="http://www.w3.org/2000/svg">
  <defs>
    <mask fill="white" id="clip32">
      <path d="M 37.8953469117404 40.7363551357383  C 37.8953469117404 40.7363551357383  46.0798752031368 32.5197583750337  45.6916426958696 22.8857334221554  C 45.1550074235197 9.56908036596186  35.4746868178426 -0.0640785737094255  22.6174048626658 0.000320968843801239  C 9.88805287885466 0.0640797358689163  0.0319823629761878 10.0384239223403  8.26301194603474E-05 22.8857334221554  C -0.0319786010632161 35.7980848139  9.27500838513535 41.9299019607843  12.1874482530299 43.5083333333333  C 15.0998881209246 45.0867647058824  20.3758900480212 46  20.3758900480212 46  L 45.6916426958696 46  L 45.6916426958696 40.7363551357383  L 37.8953469117404 40.7363551357383  Z " fill-rule="evenodd" />
    </mask>
  </defs>
  <g>
    <path d="M 37.8953469117404 40.7363551357383  C 37.8953469117404 40.7363551357383  46.0798752031368 32.5197583750337  45.6916426958696 22.8857334221554  C 45.1550074235197 9.56908036596186  35.4746868178426 -0.0640785737094255  22.6174048626658 0.000320968843801239  C 9.88805287885466 0.0640797358689163  0.0319823629761878 10.0384239223403  8.26301194603474E-05 22.8857334221554  C -0.0319786010632161 35.7980848139  9.27500838513535 41.9299019607843  12.1874482530299 43.5083333333333  C 15.0998881209246 45.0867647058824  20.3758900480212 46  20.3758900480212 46  L 45.6916426958696 46  L 45.6916426958696 40.7363551357383  L 37.8953469117404 40.7363551357383  Z " fill-rule="nonzero" fill="#ffffff" stroke="none" />
    <path d="M 37.8953469117404 40.7363551357383  C 37.8953469117404 40.7363551357383  46.0798752031368 32.5197583750337  45.6916426958696 22.8857334221554  C 45.1550074235197 9.56908036596186  35.4746868178426 -0.0640785737094255  22.6174048626658 0.000320968843801239  C 9.88805287885466 0.0640797358689163  0.0319823629761878 10.0384239223403  8.26301194603474E-05 22.8857334221554  C -0.0319786010632161 35.7980848139  9.27500838513535 41.9299019607843  12.1874482530299 43.5083333333333  C 15.0998881209246 45.0867647058824  20.3758900480212 46  20.3758900480212 46  L 45.6916426958696 46  L 45.6916426958696 40.7363551357383  L 37.8953469117404 40.7363551357383  Z " stroke-width="2" stroke="#797979" fill="none" mask="url(#clip32)" />
  </g>
</svg>