<?xml version="1.0" encoding="utf-8"?>
<svg version="1.1" xmlns:xlink="http://www.w3.org/1999/xlink" width="36px" height="36px" xmlns="http://www.w3.org/2000/svg">
  <defs>
    <mask fill="white" id="clip33">
      <path d="M 17.5 0  C 27.3 0  35 7.70000000000001  35 17.5  C 35 27.3  27.3 35  17.5 35  C 7.69999999999999 35  0 27.3  0 17.5  C 0 7.7  7.69999999999999 0  17.5 0  Z " fill-rule="evenodd" />
    </mask>
  </defs>
  <g transform="matrix(1 0 0 1 -6 -6 )">
    <path d="M 17.5 0  C 27.3 0  35 7.70000000000001  35 17.5  C 35 27.3  27.3 35  17.5 35  C 7.69999999999999 35  0 27.3  0 17.5  C 0 7.7  7.69999999999999 0  17.5 0  Z " fill-rule="nonzero" fill="#ffffff" stroke="none" transform="matrix(1 0 0 1 6 6 )" />
    <path d="M 17.5 0  C 27.3 0  35 7.70000000000001  35 17.5  C 35 27.3  27.3 35  17.5 35  C 7.69999999999999 35  0 27.3  0 17.5  C 0 7.7  7.69999999999999 0  17.5 0  Z " stroke-width="2" stroke="#797979" fill="none" transform="matrix(1 0 0 1 6 6 )" mask="url(#clip33)" />
    <path d="M 5.15503875968992 5.06459948320414  L 29.859375 29.859375  M 5.15503875968992 29.859375  L 29.859375 5.06459948320414  " stroke-width="1" stroke="#797979" fill="none" transform="matrix(1 0 0 1 6 6 )" mask="url(#clip33)" />
  </g>
</svg>