<?xml version="1.0" encoding="utf-8"?>
<svg version="1.1" xmlns:xlink="http://www.w3.org/1999/xlink" width="14px" height="6px" xmlns="http://www.w3.org/2000/svg">
  <g transform="matrix(1 0 0 1 -11 -54 )">
    <path d="M 18 54  C 21.92 54  25 55.32  25 57  C 25 58.68  21.92 60  18 60  C 14.08 60  11 58.68  11 57  C 11 55.32  14.08 54  18 54  Z " fill-rule="nonzero" fill="#ffffff" stroke="none" />
    <path d="M 18 54.5  C 21.64 54.5  24.5 55.6  24.5 57  C 24.5 58.4  21.64 59.5  18 59.5  C 14.36 59.5  11.5 58.4  11.5 57  C 11.5 55.6  14.36 54.5  18 54.5  Z " stroke-width="1" stroke="#797979" fill="none" />
  </g>
</svg>